<svg width="118" height="60" viewBox="0 0 118 60" fill="none" xmlns="http://www.w3.org/2000/svg">
<g clip-path="url(#clip0_12816_4373)">
<path d="M6.73568 60.0001C3.01566 60.0001 -1.52176e-05 56.9898 -1.48929e-05 53.2764C-1.45683e-05 49.563 3.01566 46.5527 6.73568 46.5527C10.4557 46.5527 13.4714 49.563 13.4714 53.2764C13.4714 56.9898 10.4557 60.0001 6.73568 60.0001Z" fill="#FF3C78"/>
<path d="M29.9793 60.0001C26.2593 60.0001 23.2436 56.9898 23.2436 53.2764C23.2436 49.563 26.2593 46.5527 29.9793 46.5527C33.6994 46.5527 36.715 49.563 36.715 53.2764C36.715 56.9898 33.6994 60.0001 29.9793 60.0001Z" fill="#FF3C78"/>
<path d="M53.222 60.0001C49.502 60.0001 46.4863 56.9898 46.4863 53.2764C46.4863 49.563 49.502 46.5527 53.222 46.5527C56.942 46.5527 59.9577 49.563 59.9577 53.2764C59.9577 56.9898 56.942 60.0001 53.222 60.0001Z" fill="#FF3C78"/>
<path d="M76.4696 60.0001C72.7495 60.0001 69.7339 56.9898 69.7339 53.2764C69.7339 49.563 72.7495 46.5527 76.4696 46.5527C80.1896 46.5527 83.2053 49.563 83.2053 53.2764C83.2053 56.9898 80.1896 60.0001 76.4696 60.0001Z" fill="#FF3C78"/>
<path d="M41.5304 36.6495C37.8104 36.6495 34.7947 33.6392 34.7947 29.9258C34.7947 26.2124 37.8104 23.2021 41.5304 23.2021C45.2504 23.2021 48.2661 26.2125 48.2661 29.9258C48.2661 33.6392 45.2504 36.6495 41.5304 36.6495Z" fill="#FF3C78"/>
<path d="M53.222 13.4474C49.502 13.4474 46.4863 10.4371 46.4863 6.7237C46.4863 3.0103 49.502 -9.14067e-07 53.222 -5.88853e-07C56.942 -2.63638e-07 59.9577 3.0103 59.9577 6.7237C59.9577 10.4371 56.942 13.4474 53.222 13.4474Z" fill="#FF3C78"/>
<path d="M64.7741 36.6495C61.0541 36.6495 58.0384 33.6392 58.0384 29.9258C58.0384 26.2124 61.0541 23.2021 64.7741 23.2021C68.4941 23.2021 71.5098 26.2125 71.5098 29.9258C71.5098 33.6392 68.4941 36.6495 64.7741 36.6495Z" fill="#FF3C78"/>
<path d="M76.4696 13.4474C72.7495 13.4474 69.7339 10.4371 69.7339 6.7237C69.7339 3.0103 72.7495 -9.14067e-07 76.4696 -5.88853e-07C80.1896 -2.63638e-07 83.2053 3.0103 83.2053 6.7237C83.2053 10.4371 80.1896 13.4474 76.4696 13.4474Z" fill="#FF3C78"/>
<path d="M88.0167 36.6495C84.2967 36.6495 81.2811 33.6392 81.2811 29.9258C81.2811 26.2124 84.2967 23.2021 88.0167 23.2021C91.7368 23.2021 94.7524 26.2125 94.7524 29.9258C94.7524 33.6392 91.7368 36.6495 88.0167 36.6495Z" fill="#FF3C78"/>
<path d="M99.7132 13.4474C95.9932 13.4474 92.9775 10.4371 92.9775 6.7237C92.9775 3.0103 95.9932 -9.14067e-07 99.7132 -5.88853e-07C103.433 -2.63638e-07 106.449 3.0103 106.449 6.7237C106.449 10.4371 103.433 13.4474 99.7132 13.4474Z" fill="#FF3C78"/>
<path d="M111.264 36.6495C107.544 36.6495 104.529 33.6392 104.529 29.9258C104.529 26.2124 107.544 23.2021 111.264 23.2021C114.984 23.2021 118 26.2125 118 29.9258C118 33.6392 114.984 36.6495 111.264 36.6495Z" fill="#FF3C78"/>
</g>
<defs>
<clipPath id="clip0_12816_4373">
<rect width="118" height="60" fill="white" transform="matrix(-1 -8.74228e-08 -8.74228e-08 1 118 0)"/>
</clipPath>
</defs>
</svg>
