<svg width="159" height="40" viewBox="0 0 159 40" fill="none" xmlns="http://www.w3.org/2000/svg">
<path d="M154.028 39.385C152.855 39.385 151.865 39 151.058 38.23C150.288 37.4233 149.903 36.4333 149.903 35.26C149.903 34.1233 150.288 33.17 151.058 32.4C151.865 31.5933 152.855 31.19 154.028 31.19C155.165 31.19 156.136 31.5933 156.943 32.4C157.75 33.17 158.153 34.1233 158.153 35.26C158.153 36.4333 157.75 37.4233 156.943 38.23C156.136 39 155.165 39.385 154.028 39.385Z" fill="black"/>
<path d="M120.94 11.5H126.55L126.99 14.195C127.907 13.2417 128.989 12.49 130.235 11.94C131.519 11.39 132.894 11.115 134.36 11.115C136.524 11.115 138.375 11.5733 139.915 12.49C141.492 13.37 142.702 14.69 143.545 16.45C144.389 18.1733 144.81 20.3367 144.81 22.94V39H138.595V23.765C138.595 21.455 138.119 19.7133 137.165 18.54C136.249 17.3667 134.855 16.78 132.985 16.78C131.079 16.78 129.63 17.385 128.64 18.595C127.65 19.7683 127.155 21.51 127.155 23.82V39H120.94V11.5Z" fill="black"/>
<path d="M109.426 39L108.876 35.645C107.996 36.8183 106.951 37.7167 105.741 38.34C104.531 38.9633 102.918 39.275 100.901 39.275C98.9947 39.275 97.3447 38.9633 95.9514 38.34C94.558 37.68 93.4764 36.7817 92.7064 35.645C91.973 34.4717 91.6064 33.115 91.6064 31.575C91.6064 29.265 92.4497 27.34 94.1364 25.8C95.8597 24.2233 98.3714 23.2517 101.671 22.885L108.876 22.115V19.97C108.876 19.09 108.491 18.3017 107.721 17.605C106.951 16.8717 105.723 16.505 104.036 16.505C102.57 16.505 101.286 16.8717 100.186 17.605C99.123 18.3017 98.408 19.365 98.0414 20.795L92.6514 18.815C93.348 16.395 94.723 14.5067 96.7764 13.15C98.8664 11.7933 101.396 11.115 104.366 11.115C107.96 11.115 110.655 12.0133 112.451 13.81C114.248 15.6067 115.146 17.8983 115.146 20.685V39H109.426ZM108.876 26.9L102.276 27.725C100.883 27.9083 99.838 28.3117 99.1414 28.935C98.4447 29.5217 98.0964 30.2733 98.0964 31.19C98.0964 32.0333 98.4264 32.7667 99.0864 33.39C99.783 33.9767 100.718 34.27 101.891 34.27C103.395 34.27 104.66 33.995 105.686 33.445C106.75 32.895 107.538 32.1067 108.051 31.08C108.601 30.0533 108.876 28.7883 108.876 27.285V26.9Z" fill="black"/>
<path d="M71.402 30.145C71.6587 31.1717 72.0987 31.96 72.722 32.51C73.382 33.06 74.097 33.445 74.867 33.665C75.637 33.8483 76.3704 33.94 77.067 33.94C78.497 33.94 79.6154 33.665 80.422 33.115C81.2654 32.5283 81.687 31.795 81.687 30.915C81.687 30.1817 81.412 29.6133 80.862 29.21C80.312 28.8067 79.597 28.495 78.717 28.275C77.8737 28.0183 76.9937 27.7617 76.077 27.505C75.087 27.2483 74.0237 26.955 72.887 26.625C71.787 26.295 70.742 25.8367 69.752 25.25C68.762 24.6633 67.9554 23.9117 67.332 22.995C66.7087 22.0783 66.397 20.9417 66.397 19.585C66.397 17.8617 66.8737 16.3767 67.827 15.13C68.7804 13.8467 70.082 12.8567 71.732 12.16C73.382 11.4633 75.2337 11.115 77.287 11.115C79.7437 11.115 81.8704 11.6283 83.667 12.655C85.4637 13.6817 86.7654 15.185 87.572 17.165L82.127 18.925C81.8704 18.4117 81.4854 17.9717 80.972 17.605C80.4954 17.2383 79.9087 16.9817 79.212 16.835C78.552 16.6517 77.8737 16.56 77.177 16.56C76.0037 16.56 75.0137 16.7983 74.207 17.275C73.4004 17.7517 72.997 18.43 72.997 19.31C72.997 19.75 73.1254 20.135 73.382 20.465C73.6754 20.795 74.0604 21.07 74.537 21.29C75.0137 21.4733 75.582 21.6567 76.242 21.84C76.902 21.9867 77.5987 22.17 78.332 22.39C79.5054 22.72 80.6604 23.0867 81.797 23.49C82.9704 23.8567 84.0337 24.3333 84.987 24.92C85.977 25.5067 86.747 26.2767 87.297 27.23C87.8837 28.1833 88.2137 29.3933 88.287 30.86C88.287 32.4367 87.8287 33.885 86.912 35.205C85.9954 36.4883 84.6754 37.515 82.952 38.285C81.2654 39.0183 79.2487 39.385 76.902 39.385C74.1887 39.385 71.8604 38.7983 69.917 37.625C67.9737 36.4517 66.6537 34.5633 65.957 31.96L71.402 30.145Z" fill="black"/>
<path d="M45.8077 30.145C46.0644 31.1717 46.5044 31.96 47.1277 32.51C47.7877 33.06 48.5027 33.445 49.2727 33.665C50.0427 33.8483 50.776 33.94 51.4727 33.94C52.9027 33.94 54.021 33.665 54.8277 33.115C55.671 32.5283 56.0927 31.795 56.0927 30.915C56.0927 30.1817 55.8177 29.6133 55.2677 29.21C54.7177 28.8067 54.0027 28.495 53.1227 28.275C52.2794 28.0183 51.3994 27.7617 50.4827 27.505C49.4927 27.2483 48.4294 26.955 47.2927 26.625C46.1927 26.295 45.1477 25.8367 44.1577 25.25C43.1677 24.6633 42.361 23.9117 41.7377 22.995C41.1144 22.0783 40.8027 20.9417 40.8027 19.585C40.8027 17.8617 41.2794 16.3767 42.2327 15.13C43.186 13.8467 44.4877 12.8567 46.1377 12.16C47.7877 11.4633 49.6394 11.115 51.6927 11.115C54.1494 11.115 56.276 11.6283 58.0727 12.655C59.8694 13.6817 61.171 15.185 61.9777 17.165L56.5327 18.925C56.276 18.4117 55.891 17.9717 55.3777 17.605C54.901 17.2383 54.3144 16.9817 53.6177 16.835C52.9577 16.6517 52.2794 16.56 51.5827 16.56C50.4094 16.56 49.4194 16.7983 48.6127 17.275C47.806 17.7517 47.4027 18.43 47.4027 19.31C47.4027 19.75 47.531 20.135 47.7877 20.465C48.081 20.795 48.466 21.07 48.9427 21.29C49.4194 21.4733 49.9877 21.6567 50.6477 21.84C51.3077 21.9867 52.0044 22.17 52.7377 22.39C53.911 22.72 55.066 23.0867 56.2027 23.49C57.376 23.8567 58.4394 24.3333 59.3927 24.92C60.3827 25.5067 61.1527 26.2767 61.7027 27.23C62.2894 28.1833 62.6194 29.3933 62.6927 30.86C62.6927 32.4367 62.2344 33.885 61.3177 35.205C60.401 36.4883 59.081 37.515 57.3577 38.285C55.671 39.0183 53.6544 39.385 51.3077 39.385C48.5944 39.385 46.266 38.7983 44.3227 37.625C42.3794 36.4517 41.0594 34.5633 40.3627 31.96L45.8077 30.145Z" fill="black"/>
<path d="M20.68 5.945H18.7L7.15 39H0.440002L14.08 0.499997H25.19L38.885 39H32.175L20.68 5.945ZM7.92 24.205H30.36V29.595H7.92V24.205Z" fill="black"/>
</svg>
