<svg width="800" height="600" viewBox="0 0 800 600" fill="none" xmlns="http://www.w3.org/2000/svg">
<g clip-path="url(#clip0_175_154)">
<path d="M655.135 558.378C653.784 558.378 652.162 558.108 650.54 557.838L18.6486 432.432C12.4324 431.351 7.2973 427.838 3.78378 422.432C0.270271 417.297 -0.81081 411.081 0.540541 404.865L82.1622 12.9729C84.054 4.32426 91.6216 -1.35141 99.1892 -6.11382e-05L748.649 129.189C756.216 130.811 761.081 139.189 759.189 147.838L677.568 540C675.405 550.811 665.676 558.378 655.135 558.378ZM96.4865 5.40534C92.1622 5.40534 88.3784 9.18913 87.2973 14.3243L5.67568 406.216C4.59459 410.811 5.67568 415.676 8.10811 419.459C10.8108 423.513 14.8649 426.216 19.4595 427.027L651.351 552.703C660.811 554.595 670.27 548.378 672.162 538.919L754.054 146.486C755.135 140.811 752.432 135.135 747.838 134.324L98.1081 5.67561C97.5676 5.40534 97.027 5.40534 96.4865 5.40534Z" fill="#5B6A7F"/>
<path d="M120.541 38.3782C119.73 42.4323 115.946 44.8647 111.892 44.0539C107.838 43.2431 105.405 39.4593 106.216 35.4052C107.027 31.3512 110.811 28.9188 114.865 29.7296C118.919 30.5404 121.622 34.3242 120.541 38.3782Z" fill="#5B6A7F"/>
<path d="M141.622 42.7024C140.811 46.7565 137.027 49.1889 132.973 48.3781C128.919 47.5673 126.486 43.7835 127.297 39.7295C128.108 35.6754 131.892 33.243 135.946 34.0538C140 34.8646 142.432 38.6484 141.622 42.7024Z" fill="#5B6A7F"/>
<path d="M162.703 47.0267C161.892 51.0807 158.108 53.5131 154.054 52.7023C150 51.8915 147.568 48.1077 148.378 44.0537C149.189 39.9996 152.973 37.5672 157.027 38.378C160.811 39.1888 163.514 43.2429 162.703 47.0267Z" fill="#5B6A7F"/>
<path d="M590 511.081L575.135 488.379L597.568 473.514L600.541 478.108L582.432 490L594.324 508.108L590 511.081Z" fill="#5B6A7F"/>
<path d="M626.757 518.649L623.784 514.054L641.892 502.162L630 484.054L634.324 481.081L649.189 503.784L626.757 518.649Z" fill="#5B6A7F"/>
<path d="M673.618 138.396L670.208 154.802L675.501 155.902L678.911 139.496L673.618 138.396Z" fill="#5B6A7F"/>
<path d="M666.907 142.781L665.806 148.073L682.213 151.485L683.313 146.192L666.907 142.781Z" fill="#5B6A7F"/>
<path d="M699.73 143.514L698.378 150L705.135 151.352L706.486 144.865L699.73 143.514Z" fill="#5B6A7F"/>
<path d="M697.568 154.054L696.216 160.811L702.703 162.162L704.054 155.676L697.568 154.054Z" fill="#5B6A7F"/>
<path d="M710.541 145.676L709.189 152.433L715.946 153.784L717.297 147.027L710.541 145.676Z" fill="#5B6A7F"/>
<path d="M708.378 156.487L707.027 162.973L713.514 164.595L715.135 157.838L708.378 156.487Z" fill="#5B6A7F"/>
<path d="M71.0811 580L62.1622 564.865C46.7568 564.595 32.1622 556.487 24.3244 543.243C11.3514 521.892 18.3784 494.324 39.4595 481.351C49.7298 475.135 61.8919 473.243 73.5135 476.216C85.1352 479.189 95.1352 486.216 101.351 496.757C109.459 510 110 526.487 102.973 540.27L112.162 555.135L71.0811 580ZM65.1352 559.46L72.973 572.433L104.595 553.243L96.7568 540.27L97.5676 538.919C104.324 526.487 104.054 511.351 96.7568 499.189C91.3514 490 82.7027 483.784 72.1622 481.351C61.8919 478.919 51.0811 480.541 42.1622 485.946C23.5135 497.297 17.2973 521.622 28.6487 540.541C35.946 552.703 49.1892 560 63.5135 559.73L65.1352 559.46Z" fill="#5B6A7F"/>
<path d="M84.8649 571.622C83.7838 571.622 82.973 571.081 82.4324 570.27C82.1622 570 70.8108 549.46 62.1622 535.676C58.3784 536.487 54.3243 536.487 50.8108 535.405C46.2162 534.054 42.7027 530.811 41.3514 526.757C40.2703 523.514 42.1622 519.73 45.6757 517.838C47.5676 517.027 54.0541 514.595 61.0811 524.324C62.1622 525.676 63.2433 527.297 64.3243 529.189C66.2162 528.378 67.8378 527.297 69.7297 525.946C70.2703 525.676 70.8108 525.135 71.0811 524.595C67.2973 517.568 64.0541 511.351 63.2433 507.568C62.4324 503.784 65.4054 498.108 69.4595 495.946C71.3514 494.865 76.4865 492.973 82.1622 498.919C84.3243 501.081 85.1351 504.324 84.8649 508.378C84.3243 514.054 81.6216 520.541 77.8378 525.405C84.8649 537.838 94.0541 552.433 98.6487 559.46C99.4595 560.811 99.1892 562.432 97.8379 563.243C96.4865 564.054 94.8649 563.784 94.0541 562.433C93.2433 561.351 82.4324 544.595 73.7838 529.46C73.5135 529.73 73.2433 530 72.973 530.27C71.0811 531.622 69.1892 532.973 67.027 533.784C75.6757 547.568 86.2162 566.487 86.7568 567.568C87.5676 568.919 87.027 570.541 85.6757 571.351C85.6757 571.622 85.1351 571.622 84.8649 571.622ZM49.7297 522.433C49.1892 522.433 48.6487 522.432 48.3784 522.703C47.027 523.243 46.4865 524.865 46.7568 525.135C47.5676 527.568 49.4595 529.46 52.4324 530.27C54.3243 530.811 56.4865 531.081 58.9189 530.811C58.1081 529.73 57.2973 528.649 56.7568 527.568C54.3243 524.324 51.8919 522.433 49.7297 522.433ZM74.3243 500.27C73.5135 500.27 72.7027 500.541 72.4324 500.811C70 502.162 68.6487 505.405 68.9189 506.487C69.7297 509.189 71.8919 514.324 75.1351 520.27C77.5676 516.487 79.4595 511.892 79.7297 508.108C80 505.676 79.4595 503.784 78.6487 502.703C76.7568 500.811 75.1351 500.27 74.3243 500.27Z" fill="#5B6A7F"/>
<path d="M95.1351 598.108L117.297 584.595C121.081 582.162 122.432 577.297 120 573.243L108.378 554.054L72.4324 575.946L84.0541 595.135C86.2162 599.189 91.3514 600.541 95.1351 598.108Z" fill="#5B6A7F"/>
<path d="M113.54 560.921L74.4781 584.594L76.5793 588.061L115.641 564.388L113.54 560.921Z" fill="#5B6A7F"/>
<path d="M109.147 553.126L70.0851 576.799L72.1864 580.266L111.248 556.593L109.147 553.126Z" fill="#5B6A7F"/>
<path d="M650.811 191.892L551.622 69.189C551.622 69.189 531.351 72.4322 533.513 83.5133C535.676 94.3241 555.405 152.973 555.405 152.973C555.405 152.973 652.973 202.702 650.811 191.892Z" fill="#587BE1"/>
<path d="M413.784 188.108C412.432 174.865 536.216 140.541 536.216 140.541C536.216 140.541 584.054 146.757 602.162 156.486C620.541 165.946 637.297 175.405 650.541 191.892C663.784 208.378 698.378 247.027 698.378 247.027L530.811 208.108L475.946 204.595C475.946 204.595 416.757 212.162 413.784 188.108Z" fill="#587BE1"/>
<path d="M618.108 166.216C617.568 166.216 617.297 166.216 616.757 165.946C591.081 152.162 551.081 144.595 550.811 144.595C549.459 144.324 548.378 142.973 548.649 141.351C548.919 140 550.27 138.919 551.892 139.189C553.513 139.459 592.973 147.027 619.459 161.081C620.811 161.892 621.351 163.513 620.541 164.865C620 165.676 619.189 166.216 618.108 166.216Z" fill="#5B6A7F"/>
<path d="M800 285.676L725.405 277.567C725.405 277.567 710.541 250 676.216 224.054C664.865 215.405 651.081 207.027 635.135 199.73C601.351 184.595 573.243 174.324 554.324 168.108C538.378 162.703 520.541 165.946 507.027 176.216L416.487 245.405C416.487 245.405 420 277.297 445.676 269.459C456.757 266.216 529.189 234.324 529.189 234.324C529.189 234.324 581.892 250.811 588.919 282.162C595.676 313.513 571.622 305.676 557.838 303.243C548.378 301.622 544.054 388.378 602.432 412.162C635.405 425.676 725.405 444.865 800.27 460V285.676H800Z" fill="#587BE1"/>
<path d="M468.108 207.297C467.297 207.297 466.486 207.027 465.946 206.216C465.135 205.135 465.135 203.243 466.487 202.432C483.784 189.189 525.135 158.378 534.054 161.892C542.162 165.135 612.162 187.027 612.973 187.297C614.324 187.838 615.135 189.189 614.865 190.811C614.324 192.162 612.973 192.973 611.351 192.703C608.378 191.892 540.541 170.541 532.162 167.027C527.297 165.946 495.946 186.757 470 206.757C469.189 207.297 468.649 207.297 468.108 207.297Z" fill="#5B6A7F"/>
<path d="M403.784 406.486L542.703 469.459L470.541 327.297L541.351 237.297L410 264.594L314.595 187.027L325.946 307.567L205.676 347.567L334.865 394.054L343.513 530L403.784 406.486Z" fill="#FCCC42"/>
<path d="M558.378 303.784C549.189 301.081 493.243 289.459 476.216 289.459C467.838 289.459 455.135 291.892 444.865 296.216C448.378 294.324 431.622 301.622 441.351 297.838C432.703 302.432 427.027 308.378 430.541 315.405C438.378 331.081 477.568 333.514 500.811 350.541C524.324 367.568 558.108 402.973 619.189 417.297C636.216 421.351 667.838 420 703.513 422.703C719.459 409.189 728.378 393.514 728.378 377.027C728.649 334.865 567.568 306.216 558.378 303.784Z" fill="#587BE1"/>
<path d="M299.189 232.973H111.081V238.379H299.189V232.973Z" fill="#5B6A7F"/>
<path d="M331.351 251.351H111.081V256.756H331.351V251.351Z" fill="#5B6A7F"/>
<path d="M236.757 270H111.081V275.405H236.757V270Z" fill="#5B6A7F"/>
<path d="M212.973 155.676H111.081V171.892H212.973V155.676Z" fill="#5B6A7F"/>
<path d="M245.135 185.946H111.081V202.162H245.135V185.946Z" fill="#5B6A7F"/>
<path d="M134.865 538.919H129.459C129.73 500.27 138.919 447.567 181.892 415.405C203.243 399.459 227.027 393.513 242.973 392.162C243.514 389.73 244.324 387.297 245.405 384.865C261.351 350.54 309.73 356.757 330 361.081L328.919 366.486C289.189 357.838 260.541 365.405 250.541 387.297C249.73 388.919 249.189 390.27 248.649 391.892C252.973 391.892 256.216 392.162 258.378 392.973C273.784 397.567 282.973 405.946 284.324 416.216C285.135 423.513 281.622 430.54 275.135 434.054C268.378 437.838 260.541 437.027 253.514 431.621C243.784 424.324 240.541 410.27 241.892 397.567C227.027 398.919 204.865 404.865 185.135 419.459C152.703 444.324 135.135 485.405 134.865 538.919ZM247.297 397.567C245.405 410 249.73 422.162 256.757 427.567C261.892 431.621 267.568 432.162 272.432 429.459C277.027 427.027 279.459 421.892 278.919 416.757C278.108 408.919 270 401.892 256.757 398.108C254.865 397.838 251.622 397.567 247.297 397.567Z" fill="#5B6A7F"/>
<path d="M298.649 373.514C298.108 373.514 297.297 373.243 296.757 372.973C296.216 372.433 295.676 371.622 295.946 370.811L297.297 351.081C297.297 350.27 297.838 349.46 298.649 348.919C299.459 348.378 300.27 348.378 301.081 348.649L331.081 362.162C332.162 362.703 332.703 363.784 332.703 364.865C332.703 365.946 331.622 367.027 330.541 367.297L299.189 373.514C298.919 373.514 298.649 373.514 298.649 373.514ZM302.162 355.135L301.351 367.568L320.811 363.784L302.162 355.135Z" fill="#5B6A7F"/>
</g>
<defs>
<clipPath id="clip0_175_154">
<rect width="800" height="599.189" fill="white"/>
</clipPath>
</defs>
</svg>
