<svg width="2000" height="2000" viewBox="0 0 2000 2000" fill="none" xmlns="http://www.w3.org/2000/svg">
<path d="M876.2 1344.8C875.7 1317.1 874.3 1289.5 871.8 1261.9C866.5 1201.3 856.4 1141.2 842 1082C833.8 1048.5 824.3 1015.2 813.2 982.6C812.4 980.3 810.1 978 807.4 978.2C801.8 978.7 796.2 979.1 790.6 979.6C788.2 979.8 779.3 980.1 781.4 989.9C788.2 1022.2 795.3 1054.3 800.2 1086.9C804.5 1115.7 807.7 1144.7 809.7 1173.7C733.5 1164.5 656.1 1164.6 580 1174.5C558.4 1177.3 536.9 1180.7 515.6 1185.2C515.7 1184.5 515.6 1183.7 515.4 1182.8C511.1 1166.3 505.1 1150.1 499.4 1134.1C493.8 1118.3 487.9 1102.5 481.7 1086.9C469.2 1055.5 455.5 1024.6 440.5 994.2C432.7 978.3 424.5 962.5 415.9 947.1C414.3 942.9 413.1 941.1 409.7 940.6C408 939.6 379.6 942.8 366.7 944.6C356.1 946 359.2 954.6 360.2 956.9C389.5 1025.3 415.3 1095.1 436.6 1166.5C457.9 1237.7 474.7 1310.3 487.2 1383.5C494.3 1425.1 499.8 1483.8 505.2 1525.6C506.1 1532.3 519.7 1528.4 522.5 1524C588.3 1522.5 647.3 1531.9 711.9 1545C730.8 1548.8 762.5 1553.3 781.1 1558.2C784.4 1559 790 1545.2 791.8 1542.6C795.8 1536.9 795.5 1544.1 801.7 1541C823.6 1543.2 842.8 1545.8 864.7 1548C866.7 1552.7 867.9 1537.5 869.1 1531.3C876 1495.3 878.7 1458.2 879.2 1421.6C879.7 1395.9 878.8 1370.2 876.2 1344.8ZM839.5 1368.1C835.3 1403.1 823.5 1440.7 791.3 1459.6C760.8 1477.5 722.8 1473.7 692.7 1457C660.7 1439.2 638.5 1409 621.5 1377.4C603.2 1343.2 589.3 1306 582.4 1267.8C582.3 1267.1 582.3 1266.4 582.3 1265.8C581.2 1263.2 581.6 1260 584.6 1258.7C614.8 1245.2 647.2 1236.1 679.8 1230.6C712.1 1225.1 746.3 1222.1 779.1 1225.4C787 1226.2 787.3 1238.2 779.1 1237.9C762.6 1237.4 746.2 1236.7 729.7 1237.5C713.8 1238.3 697.9 1240 682.2 1242.6C651.9 1247.6 622.8 1256.4 594.2 1267.2C603.2 1306.2 616.6 1343.9 636.5 1378.7C653.2 1407.9 675.7 1435.1 706.7 1449.5C734.9 1462.7 771.5 1462.3 795.5 1440.4C822 1416.3 826.3 1378 828.7 1344.3C831.4 1305.6 830.5 1266.8 826.2 1228.3C825.3 1219.9 838.4 1220 839.3 1228.3C844.3 1274.5 845.1 1321.9 839.5 1368.1Z" fill="#FFEF00"/>
<path d="M849.3 357.2C845.3 325.3 831 296.6 811.6 271.4C810.4 265.6 800.6 266.3 799.8 273.2C797 297.7 771.8 310.7 749.6 311.5C721.6 312.6 695.4 300.1 669.4 291.5C620.7 275.5 566.2 266.6 518.5 290.5C496.8 301.4 478 318.7 468.4 341.3C439.5 343.3 422.4 372.7 414.2 398C404.1 429.4 400.4 462.7 401.8 495.6C404.7 561.4 428 624.1 461 680.5C470 696 479.8 711 490.1 725.6C500.7 740.6 511.6 755.9 523.8 769.6C526.6 772.7 530.9 771.8 533.4 769.3C533.4 772.4 533.4 775.5 533.3 778.7C533 793.6 532 808.5 530.6 823.4C529.9 830.9 529 838.3 528 845.7C527.5 849.5 526.8 853.2 526.2 857C500.3 871.1 478.2 893.1 463.9 918.9C455.8 933.7 452.2 949.6 460.5 965.1C467.7 978.6 479.4 990.6 490.4 1001C513 1022.4 540.2 1038.5 569.8 1048C601.6 1058.2 638 1061.4 670.8 1054.1C679.8 1052.1 684.7 1046.3 685.3 1037.2C686 1027.3 685.8 1017.3 686 1007.5C686.4 990.2 686.8 973 687.2 955.7C702.7 966 714.9 980.7 722.4 997.8C726.7 1007.6 729.4 1018.4 730 1029.1C730.5 1038.9 729.8 1053 742.6 1055C754.6 1056.9 761.3 1041.8 765.5 1033C770.3 1023 773.8 1012.4 775.9 1001.4C780 979 778.5 955.5 770.6 934C762.4 911.6 746.9 889.6 722.9 882.9C722.9 880.5 722.8 878.1 722.8 875.7C722.5 862.4 721.8 849.1 720.3 835.9C744 829.5 765.6 815.6 780.8 796.3C802.2 769.1 808.6 734.5 810.3 700.8C812.3 661.8 811 622.3 809 583.3C807.9 560.2 806.2 537.2 804.1 514.2C802.6 498 801.1 481.6 799 465.4C813 457.3 825.2 446.3 834 432.4C848.1 410.5 852.5 383 849.3 357.2ZM434.9 433.6C434.7 437.7 434 441.8 433.3 445.8C432.8 448.7 429.6 450.3 426.9 449.9C424.3 449.6 421.6 447 421.9 444.2C422.4 440.1 422.8 436 423.7 432C425.1 425.8 435.2 427.2 434.9 433.6ZM462.7 371.7C454 380.3 448.6 390.5 445.5 402.3C443.6 409.6 433.3 406.4 434.4 399.2C436.6 385.5 444.1 372.6 454.3 363.3C460 358.3 468.2 366.4 462.7 371.7ZM751.4 436.4C757 434.5 762.6 432.2 768.3 430.8C774.5 429.3 779 438.8 772.8 441.5C766.9 444 760.6 445.8 754.5 447.8C747.2 450.1 744.3 438.8 751.4 436.4ZM571.9 574.7C574.4 567 578.2 559.9 580.2 551.9C582.3 543.9 583.2 535.9 583.6 527.6C584 520.2 595 520.1 595.2 527.6C595.4 536.5 594.2 545.5 592.1 554.2C590.1 562.4 587.3 572.2 582.2 579C578.7 583.9 569.8 581.2 571.9 574.7ZM673.1 993.8C672.9 1001.7 672.7 1009.6 672.5 1017.5C672.4 1021.4 672.3 1025.4 672.2 1029.3C672.1 1031.5 673.1 1038 671.4 1039.8C669.8 1041.4 665.1 1041.4 663 1041.7C659.4 1042.2 655.8 1042.6 652.1 1043C644.2 1043.7 636.3 1044 628.4 1043.8C613.2 1043.4 598.1 1041.3 583.3 1037.5C556.2 1030.4 530.7 1017.7 508.9 1000.2C498.3 991.7 488.5 982.1 479.9 971.5C475.7 966.4 471.4 960.8 469.3 954.5C466.7 946.9 468.3 939 471.4 931.8C481.2 909.1 499.2 889.9 519.6 875.6C542.5 909.1 577.1 933.9 616.3 944.6C635.1 949.7 654.8 951.6 674.3 950.1C673.7 964.5 673.4 979.2 673.1 993.8ZM721.9 914.2C722.7 908.4 723 902.4 723.1 896.5C739.3 902.5 750.3 917.7 757 933.2C764.9 951.6 767.4 972.3 765 992.2C763.8 1002.1 761.2 1012 757.5 1021.2C755.7 1025.6 753.6 1029.9 751.3 1034C750 1036.2 748.8 1038.7 747.2 1040.7C745.9 1042.4 744.8 1044 743.5 1041.5C741.7 1037.9 742.9 1031.9 742.6 1027.9C742.2 1022.9 741.5 1017.9 740.5 1013C738.5 1003.8 735.2 994.8 730.9 986.4C722.7 970.4 710.3 956.6 695.4 946.7C700.4 945.3 705.2 943.2 709.4 939.9C717.2 933.5 720.7 924 721.9 914.2ZM798.9 676.5C798.6 708.9 797.4 743.3 782.1 772.7C768.3 799.2 743.1 818.6 714 825.4C680.3 833.3 644.1 822.2 619.4 798.3C614 793.1 605.8 801.2 611.1 806.6C634.1 829.6 667.2 842.1 699.6 839.7C702.2 839.5 704.8 839.2 707.3 838.9C709.1 859.4 710 879.9 709.4 900.5C709.2 908.6 709.3 918 704.7 925.2C700 932.5 690.9 934.5 682.9 935.7C644.7 941.5 604.4 932.2 572.3 911C557.4 901.2 544.3 888.9 533.5 874.8C535.4 874.2 537.1 872.8 537.7 870.5C539.8 863.1 540.6 855.1 541.6 847.5C542.7 839.8 543.6 832.1 544.4 824.4C545.9 809.2 546.7 794 547 778.8C547.4 751.8 546.4 724.1 542.2 697.3C545.7 698.2 549.3 698.6 553 698.3C559.6 697.7 561.7 688.1 554.6 686.2C548.5 684.6 542.6 683 537.1 679.6C531.9 676.4 527.4 672.1 523.7 667.2C514.6 655.2 510.5 640.3 507.4 625.8C504.4 611.6 500.6 595 507 581.2C512.3 569.7 523.7 563.1 536 568.5C551.5 575.3 557.1 592.9 562.2 607.6C564.2 613.5 569.7 611 573.6 607.9C584.5 599.6 612.2 565.8 618.6 538.1C622.5 521.4 623.3 503.9 622.4 486.8C621.9 477.8 620.9 468.9 619.7 459.9C619.2 456.4 618.8 452.6 618.3 448.7C666.3 472.9 722.9 492.9 776.2 475.7C780 474.5 783.7 473.1 787.3 471.5C788.6 482.5 790 493.5 791 504.5C792.9 523.5 794.4 542.6 795.6 561.7C798.1 600 799.2 638.3 798.9 676.5ZM804.4 426.6C798.6 431.4 790.2 423.4 796 418.2C820.4 396.2 827.6 362.1 812 332.7C808.5 326 818.4 320.2 822.1 326.8C840.5 359.2 833.7 402.6 804.4 426.6Z" fill="#5B6A7F"/>
<path d="M715.4 726.5C693.2 735.1 685.8 709.4 682.4 692.8C680.8 685.3 669.5 688.5 670.9 696C673.4 708.9 676.6 722.4 686.4 731.9C694.7 739.9 709.7 744.8 719.9 737.2C724.7 733.6 722.1 723.9 715.4 726.5Z" fill="#5B6A7F"/>
<path d="M676 590.7C672.7 591 669.6 592.7 667.8 595.6C666.2 598.3 665.5 602.3 667.5 605.1C667.5 605.1 667.5 605.2 667.6 605.2C668.7 607.8 670.9 609.8 673.5 610.7C679.9 612.9 686.2 608.2 686.9 601.8C687.5 595.7 682.1 590.2 676 590.7Z" fill="#5B6A7F"/>
<path d="M788.9 570.6C784.2 567.3 776.8 568.8 774.3 574.1C772.8 577.2 773 580.5 774.5 583.5C776.2 586.8 780 589.2 783.8 588H783.9C784.7 588 785.6 587.9 786.4 587.7C790.3 586.7 792.8 583.1 793.1 579.2C793.4 575.7 791.7 572.5 788.9 570.6Z" fill="#5B6A7F"/>
<path d="M765.5 614.8C762.5 601.3 759.9 587.5 756.1 574.3C754 567 743.8 570.2 745 577.4C748.4 598.2 754.2 618.6 758.6 639.2C760.5 647.9 762.1 657.7 758 666.1C754.4 673.5 747.4 676.1 740 672.6C734.3 669.9 727.7 676.9 732.9 681.8C740.5 689 753.2 687.4 761 681.3C769.4 674.7 772.8 663.6 772.7 653.3C772.5 640.3 768.4 627.3 765.5 614.8Z" fill="#5B6A7F"/>
<path d="M679.8 520.7C675.3 512.3 665.8 515 659.3 519.1C651.7 523.9 643.7 529.4 637.7 536.1C637.4 536.5 637.1 536.9 636.9 537.3C633.3 541.2 636.4 548.9 642.8 547.3C652.1 545 662.2 542.6 671.1 538.9C678 536 684 528.3 679.8 520.7Z" fill="#5B6A7F"/>
<path d="M759.4 508.9C763.9 500.5 773.4 503.2 779.9 507.3C787.5 512.1 795.5 517.6 801.5 524.3C801.8 524.7 802.1 525.1 802.3 525.5C805.9 529.4 802.8 537.1 796.4 535.5C787.1 533.2 777 530.8 768.1 527.1C761.2 524.3 755.3 516.6 759.4 508.9Z" fill="#5B6A7F"/>
<path d="M1177.4 1612.9C1175.5 1602.4 1170 1592.1 1164.3 1583.2C1158.5 1574 1151.5 1565.5 1143.5 1558.1C1127.4 1543.1 1107.6 1532.4 1086.3 1527.2C1060.7 1521 1034.1 1522.2 1008.3 1525.9C983.7 1529.5 959.5 1536 936.4 1545.1C925.9 1549.3 915.7 1553.9 905.7 1559.1C906.8 1554.7 903.4 1546.9 897.6 1545.4C889.1 1543.1 879.8 1542.3 871 1541.2C862.7 1540.2 854.3 1539.4 845.9 1538.8C828.7 1537.6 810.7 1536.6 793.5 1538.2C790.6 1538.5 788.8 1540.3 788.2 1542.4C786.1 1545.9 784.1 1549.6 782.3 1553.3H782.2C690.7 1532 596.8 1521 502.8 1521.1C491.6 1521.1 480.4 1521.2 469.2 1521.5C449.1 1437.2 424.6 1354 395.7 1272.3C387.5 1249 378.9 1225.9 369.9 1202.9C367.2 1195.9 355.7 1198.9 358.5 1206.1C389.8 1287.8 417.2 1371 439.9 1455.5C445.8 1477.6 451.4 1499.7 456.8 1521.9C445.5 1522.3 434.2 1523 422.9 1524.1C415.6 1524.8 415.3 1536 422.9 1535.7C446.3 1534.8 469.7 1533.5 493.1 1533.3C516.2 1533.1 539.3 1533.6 562.4 1534.7C609 1537 655.4 1541.9 701.4 1549.6C726.7 1553.8 751.8 1558.9 776.8 1564.7C767.7 1585.7 761.6 1608.4 758.1 1630.6C753.2 1661.7 753.2 1693.4 758.4 1724.5C759.4 1730.4 760.5 1736.3 761.8 1742.2C760.6 1741.7 759.3 1741.6 757.8 1741.9C635 1765.8 507.8 1790.2 383.2 1765.1C350 1758.4 318.1 1747.8 287.1 1734.3C280.4 1731.4 274.3 1741 281.2 1744.4C335.8 1771.8 398.1 1783.9 458.6 1787.5C522.9 1791.4 587.4 1785.1 650.9 1775.2C687.9 1769.5 724.7 1762.5 761.5 1755.5C762.9 1755.2 763.9 1754.7 764.7 1754C766.9 1761.6 769.4 1769.2 772.6 1776.3C773.8 1778.9 776.1 1779.8 778.4 1779.5C779.3 1779.8 780.4 1779.9 781.6 1779.7C797.5 1777 813.1 1772.4 828.8 1768.7C844.5 1764.9 860.2 1761.3 875.9 1757.4C885 1755.1 890.1 1738.2 889.1 1729.6V1729.5C891.5 1728.8 894 1728.1 896.4 1727.4C908.7 1723.9 920.9 1719.8 933 1715.4C944.7 1711.1 956.2 1706.3 967.5 1701.2C973.3 1698.6 979.1 1695.8 984.9 1693C990.8 1690.1 997.3 1687.4 1002.6 1683.5C1007.5 1679.9 1004.8 1670.2 998.1 1672.8C992.5 1674.9 987.3 1678.1 982 1680.8C976.3 1683.7 970.5 1686.5 964.7 1689.1C953.2 1694.4 941.6 1699.2 929.8 1703.6C918.3 1707.8 906.7 1711.7 895 1715.2C884.4 1718.3 873.6 1720.6 862.9 1723.5C861.5 1709 860.7 1694.4 860.7 1679.8C860.7 1663.3 861.5 1646.7 863.3 1630.2C864.5 1618.9 865.9 1607.4 868.6 1596.2C868.7 1596.1 868.9 1596 869 1595.9C907.2 1568.4 950.7 1549 997 1540.1C1041.9 1531.5 1091.9 1531.4 1128.4 1562.6C1136.9 1569.9 1144.5 1578.2 1150.7 1587.5C1157.1 1597 1161 1607.3 1165.8 1617.6C1169.2 1624.5 1178.6 1619.3 1177.4 1612.9ZM871.4 1559.2C859.6 1574.7 855.8 1595.2 853.1 1614.1C850 1635.9 848.3 1657.8 848.3 1679.8C848.3 1690.8 848.7 1701.9 849.5 1712.9C850.2 1722.9 850.1 1734.5 854 1743.9C854.8 1745.8 855.8 1747.6 857.1 1749.2C846.7 1751.7 836.2 1754.3 825.8 1756.9C811.8 1760.3 797.4 1763.2 783.5 1767.3C779.5 1754.5 775.3 1741.9 772.7 1728.7C769.7 1713.9 768.1 1698.8 767.6 1683.7C766.7 1654 770.7 1624.2 779.3 1595.7C784.1 1579.9 790.6 1565.1 797.6 1550.2C813.4 1550.5 829.2 1550.2 845 1551.4C853.4 1552 861.8 1552.9 870.1 1553.9C871.9 1554.1 873.8 1554.4 875.6 1554.7C874.1 1556 872.7 1557.5 871.4 1559.2Z" fill="#5B6A7F"/>
<path d="M1122.1 1617.2C1115.5 1607.1 1107.1 1598.4 1097.2 1591.6C1076.2 1577.2 1048 1572.5 1023.6 1579.9C1016.4 1582.1 1019.4 1592.9 1026.7 1591.2C1048.9 1585.9 1072 1589.3 1090.8 1602.6C1098.9 1608.4 1105.9 1616.1 1111 1624.6C1113.6 1628.9 1115.8 1633.3 1117.6 1638C1119.4 1643 1120.3 1648.4 1122.8 1653.1C1125.7 1658.9 1133.4 1655.4 1133.9 1650.1C1134.9 1639.2 1127.8 1626.1 1122.1 1617.2Z" fill="#5B6A7F"/>
<path d="M1094.1 1666.1C1090.2 1656.3 1084.2 1647.4 1076.3 1640.4C1060.4 1626.6 1037.3 1620.2 1016.8 1625.8C1009.5 1627.8 1012.7 1638.2 1019.9 1637C1037.3 1634.1 1055.5 1637.9 1068.7 1650.3C1074.8 1656 1079.5 1663.2 1082.4 1671C1083.8 1674.8 1084.9 1678.8 1085.5 1682.8C1086.2 1687.3 1085.8 1691.9 1086.6 1696.4C1087.7 1702.5 1096.4 1701.6 1098 1696.4C1100.7 1687.1 1097.6 1674.8 1094.1 1666.1Z" fill="#5B6A7F"/>
<path d="M349.8 959.9C300.4 961.8 252.7 982.1 214.7 1013.2C174.1 1046.3 146.4 1091.9 134.7 1142.9C121.2 1202.1 126.9 1263.7 135.4 1323.2C144 1383.8 157.5 1443.7 175.9 1502C194.3 1560.3 217.4 1617.2 245 1671.8C248.4 1678.6 251.9 1685.3 255.7 1691.8C260 1699.3 271 1692.7 267.2 1685.1C254.2 1658.4 240.7 1632 228.9 1604.7C217.1 1577.5 206.5 1549.7 196.9 1521.6C177.8 1465.5 162.8 1407.8 152.6 1349.3C142.6 1292 134.9 1232.6 141.8 1174.5C148 1122.2 169.3 1073.7 207 1036.5C245.3 998.8 296.1 975.5 349.7 971.4C357.1 970.8 357.2 959.6 349.8 959.9Z" fill="#5B6A7F"/>
<path d="M1534.3 1115.7C1495.2 1114.6 1456.1 1115.4 1417 1115.4C1379.6 1115.4 1342.3 1115 1304.9 1115.6C1305.3 1104.6 1304 1093.2 1303.7 1082.2C1303.3 1069.7 1303.7 1056.9 1302.3 1044.5C1319.9 1028.4 1334.9 1008.8 1347.2 988.4C1352.2 980.1 1357.2 969 1351.2 959.9C1345 950.4 1332.7 950.9 1323.5 955.2C1312.9 960.2 1303.1 967.8 1293.9 975C1284.5 982.3 1275.6 990.3 1267.2 998.7C1250.3 1015.6 1235.3 1034.4 1221.5 1053.9C1208.8 1071.9 1196.8 1090.6 1185.5 1109.6C1180.8 1104 1172 1102.1 1165.1 1104.4C1163.9 1104.5 1162.7 1105 1161.5 1106.1C1152.8 1114.4 1144.7 1123.4 1136.4 1132.1C1128.8 1140 1119.8 1147.6 1113.3 1156.5C1110.8 1158 1109.1 1161.3 1110.8 1164.3C1113.3 1168.7 1116.1 1172.9 1119.1 1177.1C1118.8 1177.3 1118.4 1177.6 1118.1 1177.9C1104.7 1190.6 1092.9 1205.6 1081.1 1219.8C1069.3 1234.1 1057.9 1248.7 1046.9 1263.7C1035.6 1279.1 1024.7 1294.9 1014.3 1310.9C1004.7 1209.6 975.4 1105.7 899.4 1034C879.6 1015.3 856.9 999 832.1 987.8C825.3 984.7 819.3 994.6 826.2 998C868.8 1019.1 904.3 1050.8 931.2 1090C961 1133.2 979.4 1183 990.3 1234.1C996.8 1264.6 1000.7 1295.5 1003.1 1326.5C1003.2 1327.2 1003.3 1327.8 1003.5 1328.3C997.6 1337.9 991.8 1347.7 986.3 1357.6C982.6 1364.3 992.7 1370.2 996.5 1363.6C1014.8 1331.8 1034.6 1301 1056.3 1271.4C1067 1256.8 1078.2 1242.5 1089.7 1228.5C1101.5 1214.3 1114.5 1201 1126.2 1186.7C1129.4 1190.8 1132.7 1194.8 1135.9 1198.8C1144.9 1209.8 1154.5 1220.5 1164.5 1230.6C1184.3 1250.7 1206 1269 1229.1 1285.2C1233.5 1288.3 1238 1291.3 1242.5 1294.2C1209.9 1355.1 1174 1414.1 1134.9 1471C1123.7 1487.2 1111.8 1503 1100.8 1519.3C1097.2 1524.7 1105.7 1531.5 1109.9 1526.3C1131.7 1499.2 1151 1469.5 1170 1440.4C1189.2 1411.1 1207.6 1381.2 1225 1350.8C1234.5 1334.2 1243.8 1317.5 1252.8 1300.7C1258.5 1304.2 1264.3 1307.6 1270.2 1310.9C1272.3 1312.1 1274.4 1311.9 1276 1310.9C1277.3 1310.6 1278.5 1309.8 1279.4 1308.6C1294.7 1288.5 1309.9 1268.3 1325.2 1248.1C1326.2 1246.8 1326.5 1245.5 1326.3 1244.3C1326.5 1243.4 1326.5 1242.5 1326.4 1241.5C1325.5 1235 1322.8 1229 1318.7 1223.9C1316.4 1221 1313.1 1217.3 1309.4 1215.3C1313.6 1206.2 1318.1 1197.3 1323.7 1188.7C1328 1182.2 1332.6 1175.9 1337.7 1170C1342.9 1163.9 1348.9 1158.5 1354.3 1152.6C1359.6 1146.8 1351.8 1139.7 1345.9 1144.2C1333 1154.3 1322.2 1169 1313.3 1182.6C1304.6 1195.9 1296.6 1210.8 1292 1226.1C1253.5 1208.3 1219.6 1180.5 1194.8 1146.2C1191.6 1141.7 1188.5 1137.2 1185.6 1132.5C1209.4 1095.2 1231 1056.8 1260.4 1023.4C1274.1 1007.8 1289.1 993.3 1305.8 980.9C1309.7 978 1313.6 975.3 1317.6 972.6C1322.1 969.7 1326.8 966.2 1331.9 964.7C1335.1 963.8 1340 963.7 1341.2 967.6C1342.6 971.8 1339.2 977.2 1337.2 980.7C1324.9 1001.8 1309.1 1020.1 1292.3 1037.7C1290.9 1039.1 1290.5 1040.8 1290.7 1042.2C1290.5 1042.8 1290.3 1043.6 1290.2 1044.4C1289.5 1057.2 1290.7 1070.3 1291.1 1083.1C1291.5 1095.7 1290.9 1108.9 1292.6 1121.4C1292.8 1123 1293.5 1124.1 1294.4 1124.8C1295.3 1126.3 1296.9 1127.4 1299.3 1127.5C1338.4 1128.1 1377.5 1127.7 1416.6 1127.7C1455.7 1127.7 1494.9 1128.4 1533.9 1127.4C1541.9 1127.2 1541.9 1115.9 1534.3 1115.7ZM1271.5 1229.5C1284.3 1236.5 1297.6 1242.4 1311.4 1247.1C1298.5 1264.1 1285.7 1281.1 1272.9 1298.2C1225.9 1271.5 1183.8 1236.6 1149 1195.2C1140.1 1184.7 1132.2 1173.4 1123.9 1162.5C1131.6 1155.9 1138.3 1147.6 1145.2 1140.4C1151.8 1133.5 1158.7 1126.8 1165.2 1119.8C1188.2 1166 1226.3 1204.7 1271.5 1229.5Z" fill="#5B6A7F"/>
<path d="M1546.6 844.2C1546.5 841.7 1545.1 840 1543.4 839.2C1542.4 837.9 1540.9 837.1 1538.7 837.2C1456.8 839.8 1374.9 839.2 1292.9 837C1288.2 836.9 1286.4 841.4 1287.6 844.8C1286.8 853.5 1287.5 862.5 1287.5 871.1C1287.5 880.8 1287.5 890.4 1287.5 900.1C1287.5 909.8 1287.5 919.4 1287.5 929.1C1287.5 939 1287 949.2 1287.8 959.1C1288.4 966.4 1298.6 966.4 1299.2 959.1C1300 949.2 1299.5 939.1 1299.5 929.1C1299.5 919.4 1299.5 909.8 1299.5 900.1C1299.5 890.4 1299.5 880.8 1299.5 871.1C1299.5 863.9 1300 856.4 1299.7 849C1378 852.3 1456.6 852.1 1534.9 849.7C1536.9 926.3 1540.1 1002.9 1542.8 1079.5C1543.1 1087.3 1555.1 1087.3 1554.9 1079.5C1552.2 1001 1550.1 922.5 1546.6 844.2Z" fill="#5B6A7F"/>
<path d="M1343.9 1022.7C1340.5 1018.8 1334.4 1018.7 1330.8 1022.2C1326.8 1026 1327.5 1033.5 1332.5 1036C1332.7 1036.1 1332.8 1036.1 1333 1036.2C1335.5 1037.8 1338.7 1037.9 1341.4 1036.5C1346.5 1033.9 1347.6 1026.9 1343.9 1022.7Z" fill="#5B6A7F"/>
<path d="M1347.8 1073.2C1345 1068.7 1338.7 1067.1 1334.3 1070.2C1331.7 1072 1330.2 1074.8 1330.1 1077.9C1330 1081 1331.5 1084.3 1334.4 1085.7C1334.8 1085.9 1335.3 1086.1 1335.8 1086.2C1337.9 1087.2 1340.4 1087.5 1342.6 1086.8C1347.9 1085 1350.8 1078.2 1347.8 1073.2Z" fill="#5B6A7F"/>
<path d="M1511.7 1016.3C1468 1017.2 1424.3 1017.2 1380.6 1019.2C1373.2 1019.5 1373.1 1030.8 1380.6 1030.8C1424.3 1031 1468 1029.2 1511.7 1028.3C1519.4 1028.1 1519.4 1016.1 1511.7 1016.3Z" fill="#5B6A7F"/>
<path d="M1512.1 1072.2C1491.2 1071.9 1470.2 1073.2 1449.4 1073.7C1439.1 1074 1428.8 1074.2 1418.5 1074.5C1408 1074.8 1397.1 1074.4 1386.6 1075.6C1379.4 1076.4 1379.1 1086.5 1386.6 1087C1397.1 1087.7 1407.9 1086.7 1418.5 1086.5C1428.8 1086.2 1439.1 1086 1449.4 1085.7C1470.3 1085.2 1491.3 1085.3 1512.1 1084C1519.6 1083.5 1519.7 1072.3 1512.1 1072.2Z" fill="#5B6A7F"/>
<path d="M1506.8 973.2C1485.7 970.2 1463.9 969.6 1442.6 969.3C1421 968.9 1399.4 969.3 1377.9 971.1C1370.4 971.7 1370.3 983.3 1377.9 982.9C1399.1 981.8 1420.4 981 1441.6 981.3C1462.9 981.6 1484 983.7 1505.2 984.9C1511.7 985.2 1513.4 974.2 1506.8 973.2Z" fill="#5B6A7F"/>
<path d="M1287.5 1363.1C1285.5 1361.5 1283.5 1359.5 1281.3 1358.1C1277.9 1354.7 1275.2 1353.1 1272 1356.7C1245.7 1386.5 1220.9 1418 1196.4 1449.2C1171.9 1480.4 1123.9 1545.8 1123.8 1546.5C1132.5 1551.3 1140.5 1557.6 1147.7 1564.6C1148.4 1563.7 1170.5 1529.5 1181.5 1513.7C1192.5 1498 1203.6 1482.5 1214.9 1467C1221.7 1457.7 1275.5 1387 1288.5 1369.6C1289.9 1367.7 1289.5 1364.8 1287.5 1363.1Z" fill="#5B6A7F"/>
<path d="M1054 1696.7C1049.8 1686.9 1039.4 1683.4 1029.4 1684.2C1013.5 1685.4 1008.2 1690.9 986.8 1705.5C965.4 1720.1 935.2 1749.4 916.7 1773.1C898.2 1796.7 893.9 1798.9 891.8 1815.5C889.2 1835.5 903 1854.6 922.4 1859.7C968.5 1871.9 999.7 1823.3 1019.6 1789.8C1031.5 1769.8 1046 1738.4 1050 1727.2C1053.9 1715.8 1058.2 1706.6 1054 1696.7ZM967.5 1755C956.5 1766 945.5 1776.4 936.4 1789.3C927.4 1802.1 920.8 1815.7 914.3 1829.8C911.5 1835.8 901.7 1831.5 903.7 1825.3C908.8 1809.8 917.3 1795 926.8 1781.8C936.2 1768.6 947.2 1755.4 960.3 1745.8C965.8 1741.6 972 1750.4 967.5 1755ZM1045.6 1706.8C1037.3 1734.5 1021.4 1760.9 1001.2 1781.5C996 1786.8 988.4 1778.9 993.2 1773.5C1011.4 1752.7 1024.8 1729.7 1034.3 1703.7C1036.9 1696.7 1047.8 1699.5 1045.6 1706.8Z" fill="#5B6A7F"/>
<path d="M1255.3 921.4C1185.1 920.5 1115 919.5 1044.8 918.7C1045.3 869.2 1045.2 819.6 1045.1 770C1045.1 766.5 1042.1 763.8 1038.6 764H1038.5C1035.3 764.2 1032.9 766.8 1032.9 770C1032.9 783.8 1032.9 797.6 1032.9 811.4C1032.9 850 1034 888.7 1033.2 927.3C1033.1 931.4 1040.1 931 1043.7 930.6C1114.2 931.7 1184.8 932.7 1255.3 933.7C1263.2 933.9 1263.2 921.5 1255.3 921.4Z" fill="#5B6A7F"/>
<path d="M1365.3 457.2C1473.4 457.2 1581.6 457.2 1689.7 457.2C1750.2 457.2 1810.8 457.6 1871.4 456.9C1872 456.9 1872.5 456.8 1873 456.7C1873.1 472.5 1873.2 488.3 1873.2 504.1V511.5C1873.2 514.7 1876 517.1 1879.2 516.6C1879.7 516.5 1880.3 516.4 1880.8 516.4C1883.3 516 1885.2 513.8 1885.2 511.3C1885.2 474.7 1885.8 438 1884.8 401.5C1884.7 397.4 1881.3 395.6 1878.2 396C1878.1 396 1877.9 396 1877.8 396C1768.3 394.9 1658.9 393.7 1549.4 392.6C1440.3 391.5 1331.1 390.3 1222 389.2C1160.4 388.6 1098.9 387.9 1037.3 387.4C1031.4 387.4 1033 399.1 1033 399.9C1032.7 468.5 1032.9 537.1 1032.9 605.7C1032.9 613.9 1032.9 622.2 1032.9 630.4C1032.9 633.6 1035.7 636 1038.9 635.4C1039.6 635.3 1040.4 635.1 1041.1 635C1043.4 634.5 1045.1 632.4 1045.1 630C1045.1 591.9 1045.1 553.8 1045.1 515.7C1045.1 496.2 1045.1 476.7 1045.1 457.2C1151.7 457.2 1258.5 457.2 1365.3 457.2ZM1044.8 399.8C1044.8 399.6 1044.8 399.4 1044.8 399.2C1151.8 400.6 1258.7 401.6 1365.7 402.7C1474.8 403.9 1584 405 1693.1 406.2C1753.1 406.8 1813.1 407.5 1873.1 408.1C1872.9 420.6 1872.8 433 1872.9 445.5C1872.4 445.4 1871.9 445.3 1871.4 445.3C1763.3 444.1 1655.1 445 1547 445C1438.9 445 1330.7 445 1222.6 445C1163.4 445 1104.2 445 1044.9 445C1044.9 430 1044.9 414.9 1044.8 399.8Z" fill="#5B6A7F"/>
<path d="M1879.8 638C1879.1 638.1 1878.5 638.2 1877.8 638.2C1875.3 638.5 1873.3 640.7 1873.3 643.2C1873.4 698.8 1873.4 754.4 1873.5 810.1C1873.5 840.9 1873.6 871.8 1873.6 902.6C1795 903.7 1716.4 904.3 1637.8 905.1C1614.6 905.3 1591.4 905.2 1568.2 906.1C1560.8 906.4 1560.8 917.4 1568.2 917.6C1609.3 918.4 1650.4 917.1 1691.5 916.7C1732.6 916.3 1773.7 915.9 1814.8 915.5C1830.5 915.3 1866.5 915 1880.3 914.8C1883.4 914.8 1885.8 912.3 1885.8 909.2C1885.8 883.4 1885.6 775.1 1885.5 721.4L1885.4 643C1885.4 639.9 1882.8 637.6 1879.8 638Z" fill="#5B6A7F"/>
<path d="M1244.8 621.1C1234.7 622.2 1224.5 623.3 1214.4 624.4C1187.5 627.3 1160.6 629.9 1133.7 632.4C1126.1 671.3 1118.6 710.2 1111 749C1110.7 750.5 1110.9 752.1 1111.6 753.5C1149.5 750.6 1187.4 747.2 1225.3 743.4C1228.9 724.3 1232.5 705.2 1236.1 686.1C1237.9 676.4 1239.8 666.6 1241.6 656.9C1243.3 647.8 1246.3 638.1 1246.7 628.9C1246.7 626 1246.1 623.3 1244.8 621.1Z" fill="#5B6A7F"/>
<path d="M1511.2 586.5C1473.9 592.1 1436.6 597.4 1399.2 602.3C1391.9 643.4 1384.8 684.5 1377.6 725.7C1416.3 720.6 1455 715 1493.6 709L1502.2 658.2C1504 647.4 1505.9 636.6 1507.7 625.8C1509.4 615.7 1512.4 605 1512.8 594.7C1512.9 591.7 1512.3 588.9 1511.2 586.5Z" fill="#5B6A7F"/>
<path d="M1776.5 541.6C1739.4 548.6 1702.2 555.4 1665 561.8C1657.8 602.3 1650.8 642.8 1643.7 683.3C1666.1 679.1 1688.4 674.8 1710.7 670.3C1727.4 666.9 1744.1 663.5 1760.8 659.9C1763.3 645 1765.9 630 1768.4 615C1770.2 604.2 1772.1 593.4 1773.9 582.6C1775.6 572.5 1778.6 561.8 1779 551.5C1779.1 547.6 1778.2 544.2 1776.5 541.6Z" fill="#5B6A7F"/>
<path d="M1494.8 510.1C1480.5 508.6 1465.7 508.9 1451.3 508.6C1443.8 508.4 1443.9 519.9 1451.3 520.2C1465.7 520.8 1480.4 522.1 1494.8 521.6C1502.3 521.3 1502 510.9 1494.8 510.1Z" fill="#5B6A7F"/>
<path d="M1724.8 501.5C1694.1 501 1663.3 502.5 1632.7 503.1C1602 503.7 1571.3 504.2 1540.6 505.2C1533.3 505.4 1533.3 516.6 1540.6 516.5C1571.3 516.3 1602 515.6 1632.7 515.1C1663.4 514.5 1694.2 514.8 1724.8 513.2C1732.2 512.7 1732.3 501.7 1724.8 501.5Z" fill="#5B6A7F"/>
<path d="M1596.9 544.2C1586.1 543.8 1575.1 544.7 1564.2 545.1C1553.3 545.4 1542.4 545.8 1531.5 546.1C1509.7 546.8 1487.9 547.2 1466.2 548.4C1459 548.8 1458.8 559.8 1466.2 559.8C1488 559.7 1509.8 558.8 1531.5 558.2C1542.1 557.9 1552.6 557.6 1563.2 557.3C1574.3 557 1585.7 557.3 1596.8 556.1C1604.4 555.3 1604.7 544.5 1596.9 544.2Z" fill="#5B6A7F"/>
<path d="M1389.4 777.5C1355.7 776.4 1321.7 777.8 1287.9 778.1C1254.1 778.4 1220.3 778.6 1186.4 778.9C1167.2 779.1 1147.9 778.7 1128.7 779.7C1121.4 780.1 1121.4 790.8 1128.7 791.1C1162.4 792.2 1196.4 790.9 1230.2 790.6C1264 790.3 1297.8 790.1 1331.7 789.8C1350.9 789.6 1370.2 790.1 1389.4 789.1C1396.9 788.7 1396.9 777.7 1389.4 777.5Z" fill="#5B6A7F"/>
<path d="M1668.3 788C1652.2 785.8 1635.4 786.5 1619.2 786.1C1603 785.6 1586.8 785.1 1570.7 784.7C1538 783.7 1505.3 782.5 1472.6 782C1465.2 781.9 1465.3 793.1 1472.6 793.5C1504.9 794.9 1537.3 795.7 1569.7 796.6C1585.5 797.1 1601.4 797.6 1617.2 798L1641 798.7C1649.5 799 1658.3 799.8 1666.8 799.1C1672.6 798.7 1675 788.9 1668.3 788Z" fill="#5B6A7F"/>
<path d="M1810.8 780.1C1798.8 779.5 1786.4 780.9 1774.4 781.5C1762.3 782.1 1750 782.2 1738 783.6C1731 784.4 1730.6 794.6 1738 794.8C1750.4 795.1 1763 794 1775.4 793.5C1787.7 793 1800.2 793.1 1812.4 791.4C1819 790.4 1817 780.4 1810.8 780.1Z" fill="#5B6A7F"/>
<path d="M1814.8 729C1794.9 729 1775 729.9 1755.2 730C1735.7 730.1 1716.1 729.9 1696.6 729.4C1677.1 728.9 1657.5 728.2 1638 727.2C1618.2 726.2 1598.3 724.2 1578.5 723.6C1571 723.4 1571.5 734 1578.5 734.9C1598.2 737.4 1618.2 738.1 1638 739.1C1657.5 740.1 1677.1 740.9 1696.6 741.4C1735.9 742.4 1775.6 743.3 1814.9 740.9C1822.4 740.3 1822.5 728.9 1814.8 729Z" fill="#5B6A7F"/>
<path d="M1808.5 849.5C1800.1 848.4 1791.2 849.1 1782.7 849C1774.4 848.9 1766.1 848.9 1757.9 848.8C1741 848.7 1724.1 848.5 1707.2 848.4L1657.5 848C1640.4 847.8 1623 846.9 1605.8 847.7C1598.4 848.1 1598.4 858.7 1605.8 859.2C1622.6 860.3 1639.6 859.7 1656.5 859.9C1673.4 860.1 1690.3 860.2 1707.2 860.4C1723.8 860.6 1740.3 860.7 1756.9 860.9L1782.7 861.1C1791.2 861.2 1800.1 862 1808.5 861.1C1815.9 860.1 1815.8 850.4 1808.5 849.5Z" fill="#5B6A7F"/>
<path d="M853.1 541.3C837.8 523.9 812.8 518.5 791.4 527.1C769.9 535.8 754.7 559.5 757.6 582.8C750.9 582.6 744 584.6 738.1 587.9C736.2 578.8 732 570.1 725.5 562.7C710.2 545.3 685.2 539.9 663.8 548.5C640.2 558.1 624.2 585.7 631.4 610.9C631.7 611.8 632.1 612.6 632.7 613.2C637.7 633.2 654.1 649.2 675 652.6C698.3 656.4 721.9 645.8 732.9 624.5C737 616.7 739 608.3 739.2 599.9C739.4 599.9 739.5 599.8 739.7 599.8C746.7 597.6 753.8 592.8 761.4 595.4C767.4 613.6 783.1 627.9 802.6 631.1C825.9 634.9 849.5 624.3 860.5 603C871.2 582.8 868.3 558.6 853.1 541.3ZM725 611.7C719.6 628.9 704 640.8 685.9 641.2C665.2 641.7 646.2 626.9 643.5 605.9C643.4 604.9 643.1 604.1 642.6 603.3C642.3 587.6 647.9 572.3 662 563.5C677.1 554.2 697.2 554.8 711 566.1C724.6 577.2 730.2 595 725 611.7ZM852.5 590.3C847.1 607.5 831.5 619.4 813.4 619.8C792.7 620.3 773.7 605.5 771 584.5C770.9 583.5 770.6 582.7 770.1 581.9C769.8 566.2 775.4 550.9 789.5 542.1C804.6 532.8 824.7 533.4 838.5 544.7C852.1 555.8 857.8 573.6 852.5 590.3Z" fill="#35FFC9"/>
<path d="M1506.8 864.8C1476.7 864.6 1446.6 864.7 1416.6 864.6C1386.5 864.5 1356.4 863.9 1326.4 864.3C1321.4 864.4 1319.7 869.4 1321.3 872.9C1321.2 873.3 1321.2 873.7 1321.2 874.2C1321.2 885.5 1321.2 896.8 1321.1 908.1C1321.1 912 1324.3 915 1328.1 915.1C1387.2 916.9 1446.4 916.2 1505.6 915.2C1509.5 915.1 1512.5 912 1512.6 908.2C1513.1 896.1 1513.5 884 1513.9 871.9C1514 868 1510.5 864.8 1506.8 864.8Z" fill="#35FFC9"/>
<path d="M1482.8 935.9C1442 933.4 1400.8 934.1 1360 933.4C1352.9 933.3 1352.9 944.3 1360 944.4C1400.9 945.5 1441.9 948.1 1482.8 947.4C1490.3 947.3 1490.2 936.4 1482.8 935.9Z" fill="#35FFC9"/>
<path d="M1474.1 1541.4C1465.6 1535.6 1455.5 1531.6 1446.4 1526.9C1440.3 1523.8 1434.3 1520.7 1428.2 1517.6C1443.2 1508.4 1458.4 1499.3 1473 1489.4C1478.5 1485.7 1472.8 1476 1467 1479.4C1448.3 1490.1 1430.3 1502 1412.1 1513.4C1407.8 1516.1 1410 1522 1413.6 1523.8C1422.7 1528.5 1431.8 1533.2 1441 1537.8C1450 1542.4 1459 1548.2 1468.5 1551.6C1474.4 1553.7 1479.8 1545.3 1474.1 1541.4Z" fill="#35FFC9"/>
<path d="M1686.8 1565.7C1696.4 1562 1707.1 1560.3 1717.1 1557.8C1723.7 1556.2 1730.3 1554.5 1736.9 1552.9C1724.3 1540.5 1711.6 1528.2 1699.6 1515.3C1695.1 1510.5 1702.8 1502.3 1707.8 1506.9C1723.6 1521.5 1738.4 1537.2 1753.6 1552.4C1757.2 1556 1753.7 1561.2 1749.8 1562.2C1739.9 1564.7 1729.9 1567.2 1720 1569.7C1710.2 1572.2 1700.1 1575.7 1690.1 1576.9C1683.7 1577.7 1680.3 1568.2 1686.8 1565.7Z" fill="#35FFC9"/>
<path d="M1539.7 1538.7C1532.7 1544.3 1524.2 1548.2 1515.1 1545.8C1506.6 1543.6 1499.5 1536.3 1497.9 1527.6C1496.2 1518.8 1499.6 1509.3 1506 1503.1C1513.6 1495.8 1523.6 1493.6 1533.8 1493.7C1541.2 1493.8 1542.7 1483.2 1535.1 1482.1C1507.5 1478 1478.4 1502.9 1485.5 1531.8C1488.6 1544.8 1498.7 1555.7 1511.7 1559.2C1524.9 1562.8 1540.5 1558.6 1548.6 1547.4C1552.8 1541.7 1545.3 1534.2 1539.7 1538.7Z" fill="#35FFC9"/>
<path d="M1614.1 1547.7C1615.1 1530.4 1599.1 1524.1 1587 1516.4C1582.3 1513.4 1574 1506.3 1578.8 1500.1C1584.4 1492.9 1594 1498.9 1599.2 1503C1604.3 1507 1611.9 1499.6 1607.2 1494.8C1597.4 1484.6 1579 1480 1569.1 1492.9C1559.1 1505.9 1570.3 1520.8 1581.9 1527.5C1587.8 1530.9 1595 1533.7 1599.4 1539.2C1603.4 1544.2 1602.6 1551.2 1598 1555.6C1593.3 1560.2 1585.3 1560.3 1579.7 1557.2C1573.6 1553.9 1570.5 1547.6 1568.7 1541.2C1566.8 1534.1 1556.4 1535.4 1557.3 1543C1558.9 1557.2 1570.7 1569.9 1585.1 1571.3C1599.4 1572.6 1613.2 1562.6 1614.1 1547.7Z" fill="#35FFC9"/>
<path d="M1677.9 1555C1678.9 1537.7 1662.9 1531.4 1650.8 1523.7C1646.1 1520.7 1637.8 1513.6 1642.6 1507.4C1648.2 1500.2 1657.8 1506.2 1663 1510.3C1668.1 1514.3 1675.7 1506.9 1671 1502.1C1661.2 1491.9 1642.8 1487.3 1632.9 1500.2C1622.9 1513.2 1634.1 1528.1 1645.7 1534.8C1651.6 1538.2 1658.8 1541 1663.2 1546.5C1667.2 1551.5 1666.4 1558.5 1661.8 1562.9C1657.1 1567.5 1649.1 1567.6 1643.5 1564.5C1637.4 1561.2 1634.3 1554.9 1632.5 1548.5C1630.6 1541.4 1620.2 1542.7 1621.1 1550.3C1622.7 1564.5 1634.5 1577.2 1648.9 1578.6C1663.3 1579.9 1677 1569.9 1677.9 1555Z" fill="#35FFC9"/>
<path d="M1403.8 272.5C1398.9 268.6 1393 265.8 1387.6 262.7C1382.3 259.6 1377 256.6 1371.6 253.5C1362.8 248.4 1353.9 243.4 1345.1 238.3C1360.2 222.1 1375.6 206 1390.1 189.3C1394.6 184.1 1386.9 177.6 1382.2 182.4C1365.1 199.8 1349 218.2 1332.4 236.1C1329.9 238.8 1331.1 242.9 1334.1 244.6C1344.7 250.8 1355.3 257 1365.9 263.1C1371 266 1376 269 1381.1 271.9C1386.5 275 1392.1 279 1397.9 281.3C1403.2 283.3 1408.8 276.6 1403.8 272.5Z" fill="#35FFC9"/>
<path d="M1761.3 248.5C1765.6 244 1771.1 240.4 1776 236.6C1780.9 232.9 1785.7 229.1 1790.6 225.4C1798.7 219.2 1806.8 213 1814.8 206.8C1797.7 192.7 1780.3 178.9 1763.7 164.2C1758.6 159.7 1765.3 152.1 1770.6 156.3C1789.8 171.3 1808.3 187.3 1827.1 202.8C1830 205.2 1829.3 209.3 1826.6 211.4C1816.9 218.9 1807.2 226.5 1797.5 234C1792.9 237.6 1788.3 241.2 1783.6 244.7C1778.6 248.5 1773.7 253.2 1768.2 256.3C1763.3 259.1 1756.9 253.2 1761.3 248.5Z" fill="#35FFC9"/>
<path d="M1492.7 235.9C1485.4 226.1 1473.4 218.7 1460.8 220.6C1452.1 221.9 1444.8 227.2 1439.6 234.1C1437.2 207.7 1434.8 181.3 1431.8 155C1431 147.7 1419.8 148.4 1420.4 155.8C1423.2 191.8 1427.2 227.7 1430.9 263.6C1430.9 271.5 1432 279.6 1433.3 287.4C1434.4 294.4 1445.1 293.9 1444.4 286.7C1443.6 278.2 1442.8 269.7 1442 261.2C1442.2 257.8 1442.6 254.4 1443.5 251C1445.8 242.5 1452.3 233.6 1461.4 231.8C1471 229.9 1480 236.7 1484.8 244.4C1491.2 254.4 1491.9 266.8 1493.3 278.2C1494.1 284.6 1503.5 284 1503.4 277.5C1503.4 263.3 1501.4 247.6 1492.7 235.9Z" fill="#35FFC9"/>
<path d="M1560.7 189.2C1549.1 189.3 1537.4 189.5 1525.7 189.8C1523.7 176.5 1521.7 163.2 1519.6 149.9C1518.6 143.2 1508.1 143.8 1509 150.6C1510.8 163.8 1512.7 177 1514.6 190.2C1508.1 190.5 1501.6 190.8 1495.1 191.3C1488.3 191.8 1489.1 201.7 1495.8 201.8C1502.6 201.9 1509.4 201.8 1516.2 201.7C1519.7 225.6 1523.3 249.4 1526.9 273.3C1527.9 280.2 1538.8 279.5 1537.8 272.6C1534.3 248.9 1530.9 225.2 1527.3 201.5C1538.7 201.2 1550 200.6 1561.3 200.1C1568.4 199.7 1567.6 189.1 1560.7 189.2Z" fill="#35FFC9"/>
<path d="M1703 261.5C1700 246.9 1695.9 232.5 1692.2 218C1689.8 208.6 1685.4 196 1673.6 196.3C1661.6 196.6 1654.1 210 1650.3 219.8C1649.4 222.2 1648.6 224.6 1647.9 227C1646.7 224.6 1645.5 222.1 1644.1 219.8C1638.8 210.5 1630.5 197.6 1617.9 201.4C1607 204.6 1601.9 217.9 1598.7 227.8C1597.2 219.1 1595.6 210.4 1594 201.7C1592.8 195.2 1582.4 195.7 1583.5 202.4C1587 224.2 1590.9 245.9 1594.6 267.7C1595.8 274.4 1606.2 274 1605.4 267C1604.3 257.1 1604.8 247.3 1607 237.6C1608.2 232.5 1609.9 227.6 1612.1 222.8C1613.8 219.1 1615.8 214.6 1619.3 212.5C1626.6 208 1633.6 223.1 1636.2 227.9C1641 236.9 1644.4 246.9 1646.2 256.9C1647.4 263.7 1658.2 263.1 1657 256.2C1655.4 246.5 1655.9 236.7 1658.9 227.4C1660.3 223 1662.4 218.7 1664.8 214.8C1666.6 211.9 1670.3 206.3 1674.5 207.2C1677.6 207.8 1679 211.9 1679.9 214.5C1681.6 219.3 1682.6 224.3 1683.8 229.2C1686.7 240.6 1689.2 252.2 1692.6 263.5C1694.4 269.2 1704.2 267.5 1703 261.5Z" fill="#35FFC9"/>
<path d="M1736 259.1C1733.7 239.8 1731.4 220.4 1729.1 201.1C1728 191.7 1726.9 182.3 1725.8 173C1724.6 163.1 1724 152.9 1722 143.1C1720.7 136.9 1711.6 137 1711.8 143.8C1712.1 153.5 1713.8 163.2 1714.9 172.8C1716 182.5 1717.2 192.2 1718.3 201.8C1720.6 221.2 1722.8 240.5 1725.1 259.9C1726 266.7 1736.9 266 1736 259.1Z" fill="#35FFC9"/>
<path d="M1374.1 552C1374.1 541.7 1373.9 531.4 1373.8 521.1C1373.8 520.2 1375.3 510.8 1367.5 510.5C1300.7 508 1233.9 505.1 1167.1 502.5C1148.2 501.8 1129.2 500.7 1110.3 500.4C1109.6 500.4 1108.9 500.5 1108.3 500.7C1105.6 500.9 1103.2 502.7 1103.1 506.3C1102.9 515.2 1103.6 524.1 1103.9 532.9C1104.2 541.7 1104 550.8 1105 559.5C1105.6 564.4 1109.1 564.8 1113.7 564.6C1179.6 567.7 1245.6 567.9 1311.5 565.3C1330.6 564.6 1349.7 563.6 1368.8 562.3C1374.5 561.9 1374.2 557 1374.1 552Z" fill="#35FFC9"/>
<path d="M641.4 653C635.2 647.9 627.2 644.5 619.3 643.3C611 642.1 600.7 642.2 594.2 648.2C587.4 654.4 588.4 663.9 594.9 669.8C596.4 671.1 598 672.3 599.7 673.3C599.8 673.4 599.9 673.5 600 673.6C607.1 678.6 614.9 681.9 623.6 682.7C631.5 683.5 641.1 682.8 646.3 676C652.2 668.3 648 658.5 641.4 653Z" fill="#FFEF00"/>
<path d="M821.9 649.2C815.2 646.7 807.2 646.2 799.8 647.8C792 649.4 782.7 652.9 778 660.4C773.1 668.1 776 676.3 783.2 679.5C784.8 680.2 786.5 680.7 788.3 681C788.4 681 788.5 681.1 788.6 681.1C796.1 683.3 803.9 683.6 811.9 681.6C819.2 679.7 827.8 676 831.1 668.2C834.9 659.4 829.1 651.9 821.9 649.2Z" fill="#FFEF00"/>
<path d="M1077.2 409.8C1075.7 409.6 1074.2 409.6 1072.6 410.1C1065.4 412.1 1062.2 421.4 1066.2 427.6C1070.5 434.3 1080.7 434.2 1085.5 428C1090.8 421.1 1085.5 409.8 1077.2 409.8Z" fill="#FFEF00"/>
<path d="M1109.8 409.8C1108.3 409.6 1106.8 409.6 1105.2 410.1C1098 412.1 1094.8 421.4 1098.8 427.6C1103.1 434.3 1113.3 434.2 1118.1 428C1123.4 421.1 1118.2 409.8 1109.8 409.8Z" fill="#FFEF00"/>
<path d="M1142.5 409.8C1141 409.6 1139.5 409.6 1137.9 410.1C1130.7 412.1 1127.5 421.4 1131.5 427.6C1135.8 434.3 1146 434.2 1150.8 428C1156 421.1 1150.8 409.8 1142.5 409.8Z" fill="#FFEF00"/>
<path d="M1122.5 633.5C1087.5 636.7 1052.5 639.7 1017.5 642.7C1014.5 642.5 1011.2 644.4 1010.8 648.3C1008.9 666.5 1008.6 685 1007.6 703.2C1007.1 712.2 1006.6 721.2 1006.1 730.2C1005.6 739.4 1004.2 748.9 1004.7 758.1C1004.9 761.7 1012.2 760.7 1016.2 759.9C1042 758.5 1067.8 756.8 1093.7 754.9C1102.6 714.3 1110.6 673.4 1122.5 633.5Z" fill="#FFEF00"/>
<path d="M1364.3 727.4C1366.3 716 1368.2 704.6 1370.3 693.3C1373.6 675.7 1377.6 658.4 1381.8 641C1383.9 632.2 1386.1 623.3 1388.3 614.5C1389.2 610.8 1390 607.1 1390.9 603.4C1345.9 609.3 1300.9 614.8 1255.9 619.9C1254.6 633.6 1252.1 647.1 1249.8 660.6C1247 677.1 1244.8 693.8 1242.1 710.3C1240.4 721 1238.6 731.7 1236.6 742.3C1279.1 737.9 1321.6 733 1364 727.5C1364.1 727.5 1364.2 727.5 1364.3 727.4Z" fill="#FFEF00"/>
<path d="M1653.3 563.8C1623.4 568.9 1593.4 573.9 1563.4 578.6C1550.5 580.6 1537.6 582.6 1524.7 584.6C1523.6 600.9 1520.9 616.9 1518.2 633C1515.1 651 1512.5 669.1 1509.9 687.2C1508.9 693.8 1508 700.4 1507 707C1548.2 700.5 1589.4 693.4 1630.4 685.8C1638.4 645.2 1644.3 604.1 1653.3 563.8Z" fill="#FFEF00"/>
<path d="M1918.1 521.9C1918.1 521.7 1918.1 521.6 1918.1 521.5V521.4C1918.1 520.7 1917.9 520 1917.6 519.4C1917.5 519.3 1917.5 519.2 1917.4 519.1C1917.3 519 1917.3 518.9 1917.2 518.8C1916.6 517.8 1915.6 517 1914.5 516.5C1913.1 515.3 1911.3 514.6 1909 515.1C1870.7 523.1 1832.3 530.8 1793.8 538.2C1786.3 566.9 1784.4 596.7 1779.1 625.9C1777.2 636.4 1775 646.9 1772.7 657.3C1816.2 647.9 1859.5 638 1902.7 627.5C1902.9 627.4 1903.1 627.4 1903.3 627.3C1905.5 627.1 1907.4 625.7 1907.8 622.8C1910.4 606.1 1912.6 589.3 1914.3 572.4C1915.2 563.9 1916 555.4 1916.6 546.9C1917.4 538.7 1918.5 530.2 1918.1 521.9Z" fill="#FFEF00"/>
<path d="M1331.1 1781.3C1305.6 1781.3 1284.9 1760.6 1284.9 1735.1C1284.9 1709.6 1305.6 1688.9 1331.1 1688.9C1356.6 1688.9 1377.3 1709.6 1377.3 1735.1C1377.3 1760.6 1356.6 1781.3 1331.1 1781.3ZM1331.1 1709.5C1317 1709.5 1305.5 1721 1305.5 1735.1C1305.5 1749.2 1317 1760.7 1331.1 1760.7C1345.2 1760.7 1356.7 1749.2 1356.7 1735.1C1356.7 1721 1345.2 1709.5 1331.1 1709.5Z" fill="#FFEF00"/>
<path d="M212.7 732.8C187.2 732.8 166.5 712.1 166.5 686.6C166.5 661.1 187.2 640.4 212.7 640.4C238.2 640.4 258.9 661.1 258.9 686.6C259 712.1 238.2 732.8 212.7 732.8ZM212.7 661C198.6 661 187.1 672.5 187.1 686.6C187.1 700.7 198.6 712.2 212.7 712.2C226.8 712.2 238.3 700.7 238.3 686.6C238.3 672.5 226.9 661 212.7 661Z" fill="#FFEF00"/>
<path d="M1858.5 1214.4H1850.5C1849 1209.9 1847.2 1205.5 1845.1 1201.4L1850.7 1195.8C1855.5 1191 1855.5 1183.3 1850.7 1178.5L1825.6 1153.4C1820.8 1148.6 1813.1 1148.6 1808.3 1153.4L1802.7 1159C1798.5 1156.9 1794.2 1155.1 1789.7 1153.6V1145.6C1789.7 1138.9 1784.2 1133.4 1777.5 1133.4H1742C1735.3 1133.4 1729.8 1138.9 1729.8 1145.6V1153.6C1725.3 1155.1 1720.9 1156.9 1716.8 1159L1711.2 1153.4C1706.4 1148.6 1698.7 1148.6 1693.9 1153.4L1668.8 1178.5C1664 1183.3 1664 1191 1668.8 1195.8L1674.4 1201.4C1672.3 1205.6 1670.5 1209.9 1669 1214.4H1661C1654.3 1214.4 1648.8 1219.9 1648.8 1226.6V1262.1C1648.8 1268.8 1654.3 1274.3 1661 1274.3H1669C1670.5 1278.8 1672.3 1283.2 1674.4 1287.3L1668.8 1292.9C1664 1297.7 1664 1305.4 1668.8 1310.2L1693.9 1335.3C1698.7 1340.1 1706.4 1340.1 1711.2 1335.3L1716.8 1329.7C1721 1331.8 1725.3 1333.6 1729.8 1335.1V1343.1C1729.8 1349.8 1735.3 1355.3 1742 1355.3H1777.5C1784.2 1355.3 1789.7 1349.8 1789.7 1343.1V1335.1C1794.2 1333.6 1798.6 1331.8 1802.7 1329.7L1808.3 1335.3C1813.1 1340.1 1820.8 1340.1 1825.6 1335.3L1850.7 1310.2C1855.5 1305.4 1855.5 1297.7 1850.7 1292.9L1845.1 1287.3C1847.2 1283.1 1849 1278.8 1850.5 1274.3H1858.5C1865.2 1274.3 1870.7 1268.8 1870.7 1262.1V1226.6C1870.7 1219.9 1865.3 1214.4 1858.5 1214.4ZM1812.7 1244.4C1812.7 1273.6 1789 1297.3 1759.8 1297.3C1730.6 1297.3 1706.9 1273.6 1706.9 1244.4C1706.9 1215.2 1730.6 1191.5 1759.8 1191.5C1789 1191.5 1812.7 1215.2 1812.7 1244.4Z" fill="#FFEF00"/>
<path d="M1160.7 364H1151.3C1149.6 358.7 1147.4 353.6 1144.9 348.7L1151.5 342.1C1157.1 336.5 1157.1 327.4 1151.5 321.8L1122 292.3C1116.4 286.7 1107.3 286.7 1101.7 292.3L1095.1 298.9C1090.2 296.4 1085.1 294.3 1079.8 292.5V283.1C1079.8 275.2 1073.4 268.8 1065.5 268.8H1024C1016.1 268.8 1009.7 275.2 1009.7 283.1V292.5C1004.4 294.2 999.3 296.4 994.4 298.9L987.8 292.3C982.2 286.7 973.1 286.7 967.5 292.3L938 321.8C932.4 327.4 932.4 336.5 938 342.1L944.6 348.7C942.1 353.6 940 358.7 938.2 364H928.8C920.9 364 914.5 370.4 914.5 378.3V420C914.5 427.9 920.9 434.3 928.8 434.3H938.2C939.9 439.6 942.1 444.7 944.6 449.6L938 456.2C932.4 461.8 932.4 470.9 938 476.5L967.5 506C973.1 511.6 982.2 511.6 987.8 506L994.4 499.4C999.3 501.9 1004.4 504 1009.7 505.8V515.2C1009.7 523.1 1016.1 529.5 1024 529.5H1025V458.2C1000.4 449.9 982.7 426.7 982.7 399.3C982.7 365 1010.6 337.2 1044.8 337.2C1072.1 337.2 1095.3 354.9 1103.6 379.4H1175V378.5C1175 370.4 1168.6 364 1160.7 364Z" fill="#FFEF00"/>
</svg>
